<svg width="22" height="20" viewBox="0 0 22 20" fill="none" xmlns="http://www.w3.org/2000/svg">
    <path
        d="M6.83591 12.2169L3.33138 1.99998H0.999989C0.44771 1.99998 0 1.55227 0 0.999989C0 0.44771 0.44771 0 0.999989 0H4.04555C4.47278 0 4.85282 0.271419 4.99144 0.675538L8.74603 11.6215C8.7599 11.662 8.77117 11.7033 8.77976 11.7452C8.85447 12.1097 9.26369 12.4462 9.6309 12.4483L17.7607 12.4999C18.1203 12.5019 18.5248 12.1725 18.5974 11.8156L18.6096 11.7633L20.032 6.2955C20.171 5.76102 20.717 5.44045 21.2515 5.57949C21.786 5.71854 22.1066 6.26455 21.9675 6.79904L20.551 12.244C20.2756 13.5214 19.0551 14.5072 17.7488 14.4998L9.61892 14.4482C8.3299 14.441 7.12942 13.4729 6.83591 12.2169ZM8.49991 19.9998C7.39535 19.9998 6.49993 19.1044 6.49993 17.9998C6.49993 16.8952 7.39535 15.9998 8.49991 15.9998C9.60446 15.9998 10.4999 16.8952 10.4999 17.9998C10.4999 19.1044 9.60446 19.9998 8.49991 19.9998ZM18.4998 19.9998C17.3952 19.9998 16.4998 19.1044 16.4998 17.9998C16.4998 16.8952 17.3952 15.9998 18.4998 15.9998C19.6044 15.9998 20.4998 16.8952 20.4998 17.9998C20.4998 19.1044 19.6044 19.9998 18.4998 19.9998Z" 
        fill="#B0B0B0"
    >
    </path>
</svg>