<svg width="20" height="20" viewBox="0 0 20 20" fill="none" xmlns="http://www.w3.org/2000/svg">
    <path 
        d="M14.5745 13.2888L19.7337 18.4481C20.0888 18.8031 20.0888 19.3787 19.7337 19.7337C19.3787 20.0888 18.8031 20.0888 18.4481 19.7337L13.2888 14.5745C11.8891 15.6941 10.1136 16.3636 8.18182 16.3636C3.66312 16.3636 0 12.7005 0 8.18182C0 3.66312 3.66312 0 8.18182 0C12.7005 0 16.3636 3.66312 16.3636 8.18182C16.3636 10.1136 15.6941 11.8891 14.5745 13.2888ZM8.18182 14.5455C11.6964 14.5455 14.5455 11.6964 14.5455 8.18182C14.5455 4.66728 11.6964 1.81818 8.18182 1.81818C4.66728 1.81818 1.81818 4.66728 1.81818 8.18182C1.81818 11.6964 4.66728 14.5455 8.18182 14.5455Z" 
        fill="#B0B0B0"
    >
    </path>
</svg>