<svg width="20" height="20" viewBox="0 0 20 20" fill="none" xmlns="http://www.w3.org/2000/svg">
    <path 
        d="M10 10C7.23864 10 5 7.76136 5 5C5 2.23864 7.23864 0 10 0C12.7614 0 15 2.23864 15 5C15 7.76136 12.7614 10 10 10ZM10 8.18182C10.4178 8.18182 10.8316 8.09952 11.2176 7.93962C11.6037 7.77972 11.9544 7.54534 12.2499 7.24989C12.5453 6.95443 12.7797 6.60367 12.9396 6.21763C13.0995 5.83159 13.1818 5.41784 13.1818 5C13.1818 4.58216 13.0995 4.16841 12.9396 3.78237C12.7797 3.39633 12.5453 3.04557 12.2499 2.75012C11.9544 2.45466 11.6037 2.22028 11.2176 2.06038C10.8316 1.90048 10.4178 1.81818 10 1.81818C9.15613 1.81818 8.34682 2.15341 7.75012 2.75012C7.15341 3.34682 6.81818 4.15613 6.81818 5C6.81818 5.84387 7.15341 6.65318 7.75012 7.24989C8.34682 7.84659 9.15613 8.18182 10 8.18182ZM19.4623 14.62C19.6214 14.9664 19.7332 15.4655 19.8305 16.1282C19.8979 16.5926 19.9502 17.059 19.9873 17.5268L19.9977 17.6627L20 17.7273C20 18.3296 19.7609 18.9072 19.3353 19.3334C18.9097 19.7595 18.3323 19.9993 17.73 20H2.27C1.66771 19.9993 1.09033 19.7595 0.664702 19.3334C0.239073 18.9072 -4.3365e-07 18.3296 0 17.7273L0.00227278 17.6627L0.0127273 17.5268C0.0515626 17.0592 0.103857 16.5928 0.169545 16.1282C0.266818 15.4655 0.378636 14.9664 0.537727 14.62C1.23636 13.1032 6.37955 10.9091 10 10.9091C13.6205 10.9091 18.7636 13.1032 19.4623 14.62ZM17.7182 15.3127C17.5909 15.2014 17.4091 15.0677 17.1841 14.9232C16.6805 14.5991 16.015 14.2527 15.28 13.9391C13.5182 13.1873 11.6286 12.7273 10 12.7273C8.37136 12.7273 6.48227 13.1873 4.72 13.9391C3.985 14.2527 3.31955 14.5991 2.81591 14.9232C2.59136 15.0677 2.40909 15.2014 2.28182 15.3127C2.23455 15.3545 2.19818 15.39 2.17409 15.4168C2.11273 15.5777 2.03545 15.9355 1.96864 16.3923C1.92364 16.6968 1.88545 17.0259 1.85364 17.3559C1.83727 17.5259 1.82545 17.6632 1.81864 17.7518C1.82489 17.8675 1.8751 17.9765 1.95899 18.0564C2.04288 18.1363 2.15413 18.1812 2.27 18.1818H17.73C17.8459 18.1812 17.9571 18.1363 18.041 18.0564C18.1249 17.9765 18.1751 17.8675 18.1814 17.7518C18.1745 17.6632 18.1632 17.5259 18.1464 17.3564C18.1159 17.0341 18.0775 16.7127 18.0314 16.3923C17.9645 15.9355 17.8873 15.5777 17.8259 15.4168C17.792 15.3801 17.7561 15.3453 17.7182 15.3127Z"
        fill="#B0B0B0"
    >
    </path>
</svg>