<svg width="133" height="25" viewBox="0 0 133 25" fill="none" xmlns="http://www.w3.org/2000/svg">
    <path
        d="M4.87098 5.23897L1.83789 11.0294V11.7647L3.49231 12.0405H17.0952H22.9776L22.7019 8.73162L19.393 3.95223L16.7276 1.56252L9.83424 1.01105L6.98494 2.84928L4.87098 5.23897Z"
        fill="#1E1E1E"/>
    <path
        d="M25.3676 11.9495V13.0524L23.9118 13.5707C23.9118 13.5946 23.899 13.7435 23.8971 13.8942C23.8705 16.3172 23.0587 18.6663 21.5832 20.5899C20.1077 22.5134 18.0479 23.9079 15.7123 24.5644C15.1326 24.728 14.5418 24.8548 13.9565 25H11.932C11.7616 24.9393 11.5869 24.8913 11.4093 24.8566C6.381 24.2261 2.59879 20.7246 1.627 15.7562C1.47056 14.964 1.44295 14.1497 1.34724 13.3464L0 13.4273C0.0378681 12.8917 0.108552 12.3589 0.211656 11.8319C0.301841 11.4881 0.62209 11.2014 0.70123 10.8576C1.39878 7.78805 2.78284 5.13195 5.19575 3.04022C5.7994 2.51636 6.26875 1.84178 6.83195 1.26645C7.0536 1.01868 7.33305 0.82928 7.64545 0.71502C7.86615 0.64889 8.0888 0.58678 8.3127 0.52734C9.73185 0.150595 11.202 0 12.6705 0H14.1649C14.6377 0 15.1018 0.091968 15.5688 0.165428C16.9308 0.380486 18.3571 0.465038 18.9259 2.08073C18.9774 2.23145 19.1781 2.33806 19.3253 2.44835C22.3124 4.564 23.9063 7.5307 24.6628 11.0359C24.7382 11.3723 25.1265 11.6462 25.3676 11.9495ZM3.28162 13.102C3.16751 16.8719 4.58469 19.8111 7.66755 21.7411C11.1259 23.9118 14.7185 23.6748 18.0443 21.4157C20.8989 19.4765 22.2056 16.6476 22.0271 13.102C15.7892 12.5873 9.5195 12.5873 3.28162 13.102ZM2.75707 10.944H22.4505C22.4983 8.9681 19.9602 4.89118 18.3627 4.4629L17.2694 8.15565L16.9952 8.12075C16.9639 7.80455 16.9106 7.49025 16.9069 7.1741C16.8977 5.88745 16.883 4.60077 16.9069 3.3141C16.9198 2.67076 16.6565 2.28843 16.0234 2.28292C13.7976 2.26086 11.5712 2.26086 9.34425 2.28292C8.6559 2.28292 8.41295 2.70569 8.424 3.38578C8.45525 4.67245 8.4387 5.9591 8.424 7.2458C8.40345 7.54745 8.36475 7.8476 8.30805 8.1446L8.0522 8.1575C7.6841 6.91495 7.3252 5.6742 6.91845 4.28829C4.60125 6.0345 3.40676 8.30085 2.76259 10.944H2.75707Z"
        fill="#626262"/>
    <path
        d="M6.14453 17.1899C7.22858 16.9841 8.04758 17.065 8.90528 17.9086C9.92948 18.9043 11.3064 19.4549 12.7357 19.4405C14.1649 19.426 15.5304 18.8476 16.5342 17.8314C17.3863 16.951 18.1906 17.0705 19.1606 17.1881C18.4925 19.3295 15.555 21.1749 12.7777 21.2411C10.0317 21.2981 7.03903 19.4986 6.14453 17.1899Z"
        fill="#626262"/>
    <path
        d="M8.26562 9.41846C11.1129 8.78261 14.0645 8.77261 16.916 9.38901C16.3491 9.86511 9.30182 9.92761 8.26562 9.41846Z"
        fill="#626262"/>
    <path
        d="M39.6291 19.6352C37.7045 19.6352 36.1185 18.9736 34.8711 17.6502C33.6237 16.3269 33 14.6549 33 12.6341C33 10.6313 33.6059 8.96816 34.8176 7.64486C36.0294 6.30366 37.5798 5.63306 39.4687 5.63306C41.4111 5.63306 42.9525 6.26791 44.093 7.53756C45.2513 8.78936 45.8304 10.5508 45.8304 12.8219L45.8037 13.0902H35.5126C35.5482 14.3777 35.976 15.4149 36.7957 16.2017C37.6154 16.9886 38.5955 17.382 39.736 17.382C40.5069 17.382 41.1959 17.1919 41.8032 16.8116C42.965 16.0841 44.3854 15.4917 45.6166 16.0944C45.0285 17.2032 44.2089 18.0705 43.1575 18.6964C42.1239 19.3223 40.9478 19.6352 39.6291 19.6352ZM35.6997 11.0515H43.2109C43.1396 10.1395 42.7654 9.38841 42.0882 8.79831C41.4289 8.19026 40.5379 7.88626 39.4152 7.88626C38.4886 7.88626 37.6867 8.17241 37.0095 8.74466C36.3502 9.31691 35.9136 10.0859 35.6997 11.0515Z"
        fill="#696969"/>
    <path
        d="M50.0005 15.1824C50.0005 15.8262 50.2675 16.3627 50.802 16.7919C51.3545 17.2211 51.996 17.4356 52.727 17.4356C53.7605 17.4356 54.678 17.0512 55.48 16.2822C56.2995 15.5133 56.7095 14.6102 56.7095 13.573C55.9435 12.965 54.874 12.661 53.502 12.661C52.504 12.661 51.6665 12.9024 50.9895 13.3852C50.33 13.8681 50.0005 14.4671 50.0005 15.1824ZM53.181 5.63306C54.999 5.63306 56.4335 6.12481 57.4845 7.10836C58.536 8.07406 59.062 9.40631 59.062 11.1052V19.206H58.5335C57.526 19.206 56.7095 18.3894 56.7095 17.382H56.6025C55.587 18.8841 54.2325 19.6352 52.5395 19.6352C51.096 19.6352 49.8844 19.206 48.9043 18.3477C47.942 17.4893 47.4609 16.4163 47.4609 15.1288C47.4609 13.7697 47.9688 12.6878 48.9845 11.8831C50.018 11.0784 51.3905 10.676 53.101 10.676C54.562 10.676 55.765 10.9442 56.7095 11.4807V10.9174C56.7095 10.059 56.371 9.33476 55.694 8.74466C55.0165 8.13661 54.2235 7.83261 53.315 7.83261C52.8565 7.83261 52.4295 7.89751 52.035 8.02731C50.6755 8.47411 49.0983 8.97246 47.8886 8.20816C49.0825 6.49141 50.8465 5.63306 53.181 5.63306Z"
        fill="#696969"/>
    <path
        d="M72.0401 19.206H61.4551C61.4551 17.8209 61.9486 16.4812 62.8476 15.4273L68.9126 8.31546H63.9221C62.6776 8.31546 61.6691 7.30666 61.6691 6.06226H71.9331C71.9331 7.44731 71.4396 8.78706 70.5406 9.84096L64.4756 16.9528H69.7871C71.0316 16.9528 72.0401 17.9616 72.0401 19.206Z"
        fill="#696969"/>
    <path
        d="M86.0995 6.06226L78.903 22.67C78.29 24.0845 76.896 25 75.354 25L78.4015 18.3745L73.002 6.06226C74.6195 6.06226 76.078 7.03746 76.696 8.53256L79.5775 15.5043H79.631L82.4295 8.54236C83.032 7.04396 84.4845 6.06226 86.0995 6.06226Z"
        fill="#696969"/>
    <path
        d="M93.0631 17.382C94.2746 17.382 95.2636 16.9438 96.0301 16.0676C96.8316 15.1913 97.2326 14.0469 97.2326 12.6341C97.2326 11.2571 96.8316 10.1216 96.0301 9.22745C95.2456 8.33335 94.2566 7.88625 93.0631 7.88625C91.8866 7.88625 90.8976 8.33335 90.0956 9.22745C89.2941 10.1216 88.8931 11.2571 88.8931 12.6341C88.8931 14.0289 89.2941 15.1645 90.0956 16.0408C90.8976 16.9349 91.8866 17.382 93.0631 17.382ZM92.6621 19.6352C90.9511 19.6352 89.4811 18.9557 88.2516 17.5965C87.0396 16.2196 86.4336 14.5654 86.4336 12.6341C86.4336 10.7028 87.0396 9.04865 88.2516 7.6717C89.4811 6.3126 90.9511 5.63305 92.6621 5.63305C93.6241 5.63305 94.4976 5.8387 95.2816 6.25C96.0836 6.6613 96.6981 7.20675 97.1261 7.88625H97.2326L97.1261 6.06225V2.45917C97.1261 1.10101 98.2271 0 99.5851 0V16.8538C99.5851 18.1529 98.5321 19.206 97.2326 19.206V17.382H97.1261C96.6981 18.0615 96.0836 18.6069 95.2816 19.0182C94.4976 19.4296 93.6241 19.6352 92.6621 19.6352Z"
        fill="#696969"/>
    <path
        d="M108.334 19.6352C106.41 19.6352 104.824 18.9736 103.576 17.6502C102.329 16.3269 101.705 14.6549 101.705 12.6341C101.705 10.6313 102.311 8.96816 103.523 7.64486C104.735 6.30366 106.285 5.63306 108.174 5.63306C110.116 5.63306 111.658 6.26791 112.798 7.53756C113.956 8.78936 114.536 10.5508 114.536 12.8219L114.509 13.0902H104.218C104.253 14.3777 104.681 15.4149 105.501 16.2017C106.32 16.9886 107.301 17.382 108.441 17.382C109.212 17.382 109.901 17.1919 110.508 16.8116C111.67 16.0841 113.09 15.4917 114.322 16.0944C113.734 17.2032 112.914 18.0705 111.863 18.6964C110.829 19.3223 109.653 19.6352 108.334 19.6352ZM104.405 11.0515H111.916C111.845 10.1395 111.471 9.38841 110.793 8.79831C110.134 8.19026 109.243 7.88626 108.12 7.88626C107.194 7.88626 106.392 8.17241 105.715 8.74466C105.055 9.31691 104.619 10.0859 104.405 11.0515Z"
        fill="#696969"/>
    <path
        d="M118.705 15.1824C118.705 15.8262 118.973 16.3627 119.507 16.7919C120.06 17.2211 120.701 17.4356 121.432 17.4356C122.465 17.4356 123.383 17.0512 124.185 16.2822C125.005 15.5133 125.415 14.6102 125.415 13.573C124.648 12.965 123.579 12.661 122.207 12.661C121.209 12.661 120.372 12.9024 119.694 13.3852C119.035 13.8681 118.705 14.4671 118.705 15.1824ZM121.886 5.63306C123.704 5.63306 125.138 6.12481 126.19 7.10836C127.241 8.07406 127.767 9.40631 127.767 11.1052V19.206H127.239C126.231 19.206 125.415 18.3894 125.415 17.382H125.308C124.292 18.8841 122.938 19.6352 121.245 19.6352C119.801 19.6352 118.59 19.206 117.609 18.3477C116.647 17.4893 116.166 16.4163 116.166 15.1288C116.166 13.7697 116.674 12.6878 117.69 11.8831C118.723 11.0784 120.095 10.676 121.806 10.676C123.267 10.676 124.47 10.9442 125.415 11.4807V10.9174C125.415 10.059 125.076 9.33476 124.399 8.74466C123.722 8.13661 122.929 7.83261 122.02 7.83261C121.561 7.83261 121.135 7.89751 120.74 8.02731C119.381 8.47411 117.803 8.97246 116.594 8.20816C117.788 6.49141 119.552 5.63306 121.886 5.63306Z"
        fill="#696969"/>
    <path d="M133 0V16.7468C133 18.105 131.899 19.206 130.541 19.206V2.45918C130.541 1.10101 131.642 0 133 0Z"
          fill="#696969"/>
</svg>
